<svg width="494" height="73" viewBox="0 0 494 73" fill="none"
  xmlns="http://www.w3.org/2000/svg">
  <path d="M121.91 45.596C120.61 46.624 118.716 47.2427 116.253 47.2427H109.878L112.868 36.14H118.637C120.692 36.14 122.102 36.548 123.066 37.364C124.057 37.984 124.39 39.2227 124.29 40.6574C124.153 42.712 123.434 44.3587 121.91 45.596ZM129.148 32.636C126.994 30.9907 123.964 30.1734 120.05 30.1734H107.105L98.561 62.24H105.968L108.24 53.196H115.444C118.526 53.196 121.436 52.788 123.764 51.76C126.314 50.5214 128.048 49.0867 129.424 47.032C130.984 45.188 131.765 42.712 131.94 40.0387C132.14 36.9574 131.077 34.4934 129.148 32.636Z" fill="#3F3F46"/>
  <path d="M130.945 62.057L130.897 62.241H138.285L144.836 37.5437L144.884 37.3597H137.496L130.945 62.057Z" fill="#3F3F46"/>
  <path d="M142.574 34.2419C144.002 34.2419 145.22 33.8205 146.185 32.9872C147.157 32.1485 147.693 31.0432 147.782 29.6979C147.852 28.6619 147.5 27.7699 146.74 27.0499C145.977 26.3432 144.948 25.9805 143.669 25.9805C142.236 25.9805 141.03 26.4019 140.082 27.2352C139.129 28.0739 138.601 29.1325 138.517 30.3872C138.446 31.4645 138.796 32.3859 139.556 33.1232C140.304 33.8619 141.32 34.2419 142.574 34.2419Z" fill="#3F3F46"/>
  <path d="M164.68 36.9906C161.623 36.9906 158.926 37.9172 156.652 39.7439L157.256 37.5439L157.303 37.3586H150.236L143.686 62.0572L143.639 62.2399H151.068L154.395 49.6479C154.947 47.5959 155.86 46.0319 157.1 45.0026C158.346 43.9852 159.872 43.4679 161.646 43.4679C163.002 43.4679 164.003 43.7892 164.627 44.4252C165.263 45.0732 165.528 45.9959 165.446 47.2399C165.406 47.8466 165.31 48.4052 165.158 48.8999L161.638 62.0572L161.591 62.2399H169.019L172.696 48.5066C172.975 47.5239 173.155 46.5186 173.222 45.5092C173.403 42.7906 172.71 40.6666 171.166 39.2026C169.622 37.7346 167.44 36.9906 164.68 36.9906Z" fill="#3F3F46"/>
  <path d="M196.049 47.8811C195.912 49.9585 195.165 51.6118 193.757 52.9371C192.362 54.2411 190.634 54.8945 188.618 54.8945C186.917 54.8945 185.596 54.4718 184.693 53.6385C183.778 52.7998 183.368 51.6465 183.464 50.2078C183.598 48.1611 184.378 46.4611 185.785 45.1571C187.192 43.8545 188.942 43.1945 190.989 43.1945C192.678 43.1945 193.989 43.6171 194.873 44.4558C195.75 45.2891 196.145 46.4358 196.049 47.8811ZM198.694 41.0758C198.04 39.7505 197.06 38.7438 195.758 38.0838C194.344 37.3585 192.642 36.9905 190.716 36.9905C188.117 36.9905 185.69 37.5971 183.505 38.7985C181.332 39.9945 179.552 41.6411 178.22 43.6931C176.889 45.7411 176.129 48.0598 175.962 50.5758C175.821 52.6998 176.19 54.5678 177.05 56.1371C177.928 57.7145 179.178 58.9398 180.776 59.7785C182.38 60.6238 184.237 61.0571 186.289 61.0571C189.168 61.0571 191.662 60.2185 193.724 58.5585L193.574 59.1838C192.992 61.2585 192.042 62.8358 190.76 63.8638C189.466 64.8878 187.625 65.4051 185.269 65.4051C183.597 65.4051 181.989 65.1731 180.497 64.7091C179.012 64.2398 177.805 63.5971 176.906 62.7945L176.782 62.6865L172.957 67.9865L172.866 68.1051L172.98 68.1945C174.354 69.2651 176.042 70.0865 178.004 70.6398C179.966 71.1865 182.166 71.4665 184.546 71.4665C188.924 71.4665 192.541 70.3785 195.294 68.2371C198.054 66.0891 200.078 62.6505 201.302 58.0065L206.728 37.5438L206.776 37.3585H199.661L198.694 41.0758Z" fill="#3F3F46"/>
  <path d="M259.275 48.4762C259.173 50.0229 258.777 51.4149 258.103 52.6109C257.423 53.8002 256.522 54.7402 255.414 55.4002C254.305 56.0722 253.045 56.4055 251.683 56.4055C249.965 56.4055 248.645 55.9295 247.749 54.9962C246.85 54.0322 246.463 52.7655 246.573 51.1229C246.675 49.5709 247.065 48.1789 247.745 46.9895C248.413 45.7989 249.319 44.8602 250.434 44.2002C251.538 43.5269 252.791 43.1949 254.159 43.1949C255.878 43.1949 257.202 43.6709 258.091 44.6109C258.987 45.5562 259.382 46.8589 259.275 48.4762ZM261.437 40.4522C259.983 38.1562 257.402 36.9909 253.749 36.9909C251.233 36.9909 248.859 37.6269 246.695 38.8695C244.525 40.1135 242.738 41.8495 241.391 44.0455C240.033 46.2229 239.249 48.7149 239.069 51.4455C238.918 53.7055 239.279 55.7095 240.137 57.3922C240.99 59.0589 242.219 60.3615 243.801 61.2589C245.371 62.1575 247.15 62.6095 249.077 62.6095C249.774 62.6095 250.386 62.3975 251.042 62.2962C251.166 62.2789 251.29 62.2602 251.413 62.2375C252.619 62.0109 253.746 61.6095 254.801 61.0335C254.954 60.9482 255.11 60.8709 255.262 60.7789C255.683 60.5229 256.161 60.3842 256.555 60.0695L256.001 62.2402H263.067L269.625 37.5442L269.673 37.3589H262.231L261.437 40.4522Z" fill="#3F3F46"/>
  <path d="M282.02 44.2002C283.129 43.5335 284.394 43.1949 285.769 43.1949C288.278 43.1949 290.002 44.2829 290.901 46.4362L290.957 46.5722L297.324 43.4989L297.464 43.4322L297.409 43.2949C296.589 41.2962 295.236 39.7269 293.386 38.6375C291.538 37.5442 289.266 36.9909 286.637 36.9909C283.765 36.9909 281.1 37.6269 278.72 38.8882C276.334 40.1429 274.4 41.8802 272.969 44.0575C271.541 46.2335 270.721 48.7202 270.541 51.4455C270.394 53.6575 270.788 55.6255 271.705 57.2975C272.617 58.9695 274.017 60.2895 275.877 61.2175C277.713 62.1389 279.93 62.6095 282.47 62.6095C284.969 62.6095 287.329 62.0802 289.474 61.0389C291.608 59.9922 293.366 58.5109 294.69 56.6429L294.784 56.5122L289.624 53.1402L289.497 53.0615L289.406 53.1869C287.882 55.3522 285.88 56.4055 283.293 56.4055C281.544 56.4055 280.201 55.9242 279.296 54.9655C278.382 54.0082 277.982 52.7002 278.09 51.0762C278.19 49.5642 278.585 48.1909 279.276 46.9962C279.962 45.8055 280.886 44.8655 282.02 44.2002Z" fill="#3F3F46"/>
  <path d="M329.968 37.3591H320.218L308.092 46.7631L312.508 30.1737H305.077L296.602 62.0564L296.554 62.2404H303.99L305.589 56.2324L309.982 52.7711L315.161 62.2404H323.78L316.178 48.2377L329.622 37.6324L329.968 37.3591Z" fill="#3F3F46"/>
  <path d="M227.499 52.6168C226.832 53.7941 225.925 54.7341 224.809 55.4008C223.701 56.0661 222.441 56.4061 221.079 56.4061C219.365 56.4061 218.053 55.9288 217.169 54.9955C216.292 54.0435 215.903 52.7421 216.011 51.1235C216.113 49.5715 216.503 48.1795 217.183 46.9888C217.849 45.8115 218.751 44.8661 219.872 44.1941C220.975 43.5275 222.217 43.1955 223.555 43.1955C225.275 43.1955 226.599 43.6701 227.488 44.6101C228.377 45.5501 228.773 46.8528 228.665 48.4768C228.561 50.0408 228.172 51.4328 227.499 52.6168ZM231.461 38.3408C229.879 37.4421 228.095 36.9901 226.161 36.9901C223.551 36.9901 221.197 37.7461 219.16 39.2328L221.573 30.1741H214.137L205.667 62.0568L205.619 62.2408H212.687L213.589 58.8501C214.271 60.0448 215.251 60.9621 216.512 61.5808C217.889 62.2635 219.561 62.6088 221.489 62.6088C224.028 62.6088 226.42 61.9781 228.591 60.7355C230.767 59.4861 232.553 57.7448 233.9 55.5608C235.259 53.3661 236.037 50.8728 236.217 48.1555C236.367 45.8888 236.007 43.8835 235.148 42.2061C234.289 40.5301 233.051 39.2275 231.461 38.3408Z" fill="#3F3F46"/>
  <g opacity="0.32">
    <path d="M36.2373 63.5171C36.1666 56.2534 33.7173 49.1047 29.3719 43.4448C25.0573 37.7644 18.9066 33.614 12.1653 31.8487L13.0679 31.9718C12.5253 31.9718 11.9266 31.8295 11.4386 31.5832L12.1479 31.8514C11.9159 31.7871 11.6839 31.7159 11.4559 31.6366L13.8986 24.9531C13.8799 24.9381 13.8586 24.9285 13.8359 24.9271L14.5453 25.1953C14.1106 24.9586 13.5639 24.8259 13.0733 24.8327L13.9773 24.9559C22.1613 27.2836 29.4813 32.4699 34.5253 39.3901C39.6093 46.2857 42.3599 54.9274 42.2679 63.5171H36.2373Z" fill="#3F3F46"/>
    <path d="M28.6891 18.1408C36.4584 22.71 42.9704 29.4222 47.3997 37.3551C51.8531 45.2769 54.1611 54.4263 54.0784 63.5168H48.0491C47.9704 55.4964 45.7984 47.5554 41.7957 40.7269C37.8131 33.8888 32.0384 28.1838 25.2744 24.3604L28.6891 18.1408Z" fill="#3F3F46"/>
    <path d="M20.0049 1.51775C33.1995 5.17421 45.0489 13.4656 53.2395 24.5978C57.3475 30.1523 60.5609 36.3951 62.7035 43.0033C64.8515 49.6101 65.9169 56.5741 65.8902 63.5175H59.8609C59.8089 57.2364 58.7715 50.9813 56.7715 45.0696C54.7782 39.1566 51.8275 33.5912 48.0875 28.6607C44.3515 23.7275 39.8275 19.4292 34.7582 15.9917C29.6915 12.5487 24.0715 9.99111 18.2102 8.41467L20.0049 1.51775Z" fill="#3F3F46"/>
  </g>
  <path d="M98.3095 30.7201C94.1362 30.6804 89.9109 31.4987 86.0349 33.0998C82.1682 34.7105 78.5455 37.1353 75.5535 40.1609C72.5495 43.177 70.1095 46.8594 68.4562 50.8279C66.8149 54.806 65.9215 59.1699 65.8909 63.5174H59.8602C59.8202 58.342 60.7749 53.1898 62.6709 48.3675C64.5869 43.5465 67.3962 39.1606 70.9589 35.4467C74.5229 31.7341 78.7616 28.7714 83.4576 26.7188C88.1575 24.688 93.2042 23.6124 98.3095 23.581V30.7201Z" fill="#3F3F46"/>
  <path d="M86.9755 20.1201C77.7382 22.5627 69.2808 28.2431 63.4022 36.024C60.4502 39.9172 58.1035 44.3003 56.5275 48.9599C54.9368 53.6331 54.1155 58.5499 54.0795 63.5173H48.0488C48.0035 57.904 48.8635 52.24 50.5955 46.8949C52.3235 41.5306 54.9302 36.477 58.2448 31.9694C64.8795 22.9212 74.4835 16.2159 85.1808 13.2231L86.9755 20.1201Z" fill="#3F3F46"/>
  <path d="M70.5238 14.1036C62.0812 19.0218 54.9078 26.2513 49.9692 34.8738C45.0145 43.4854 42.3318 53.4681 42.2678 63.5166H36.2372C36.1425 52.4021 38.9532 41.2357 44.3452 31.5348C49.7185 21.8271 57.6185 13.5891 67.0385 7.92516L70.5238 14.1036Z" fill="#3F3F46"/>
  <path d="M8.43056 16.6775C8.43056 12.3669 11.8439 8.86511 16.0426 8.86511C20.2559 8.86511 23.6679 12.3669 23.6679 16.6775C23.6679 21.0004 20.2559 24.5023 16.0426 24.5023C11.8439 24.5023 8.43056 21.0004 8.43056 16.6775ZM31.0559 13.6998C29.9799 7.98932 25.8332 3.12725 20.0066 1.52481C16.0559 0.432801 11.9346 0.999335 8.4039 3.0862C6.63323 4.13716 5.11056 5.51108 3.90256 7.1272C2.6959 8.72964 1.8039 10.5893 1.27856 12.6228C-0.846771 20.7445 3.69323 29.1358 11.4492 31.6414C11.5546 31.6824 11.6599 31.7084 11.7519 31.7358C11.7639 31.7495 11.7906 31.7495 11.8172 31.7495C11.9092 31.7892 11.9999 31.8166 12.0932 31.8439H12.1319L12.1452 31.8576C12.1719 31.8713 12.1972 31.8713 12.2372 31.8713C12.2506 31.8836 12.2639 31.8836 12.2759 31.8836C12.3279 31.911 12.3812 31.9247 12.4332 31.9247H12.4466C13.6412 32.2202 14.8479 32.3694 16.0426 32.3694C19.0612 32.3694 21.9746 31.4389 24.4292 29.7817C25.8732 28.8265 27.1586 27.6004 28.2079 26.1717C29.3892 24.6104 30.2826 22.778 30.8199 20.7445C30.9119 20.3805 31.0039 20.0042 31.0692 19.6402C31.4506 17.6327 31.4239 15.6252 31.0559 13.6998Z" fill="#3F3F46"/>
  <path d="M359.71 38.6725C360.712 38.6725 361.606 38.7603 362.392 38.936C363.187 39.1013 363.921 39.3287 364.593 39.618L363.57 42.0205C363.022 41.7932 362.448 41.6278 361.849 41.5245C361.26 41.4212 360.661 41.3695 360.051 41.3695C358.976 41.3695 358.181 41.5762 357.664 41.9895C357.147 42.3925 356.889 43.0332 356.889 43.9115V46.81H362.361L361.989 49.3675H356.889V62H353.433V49.3675H349.713V46.81H353.433V43.8805C353.433 42.8472 353.691 41.943 354.208 41.168C354.735 40.3827 355.468 39.773 356.409 39.339C357.349 38.8947 358.449 38.6725 359.71 38.6725ZM374.903 45.198C376.505 45.198 377.854 45.5545 378.949 46.2675C380.044 46.9805 380.871 47.9777 381.429 49.259C381.997 50.5403 382.281 52.049 382.281 53.785C382.281 55.5107 381.992 57.0245 381.413 58.3265C380.845 59.6182 380.008 60.6257 378.902 61.349C377.807 62.062 376.469 62.4185 374.888 62.4185C373.307 62.4185 371.964 62.0723 370.858 61.38C369.763 60.6773 368.926 59.6802 368.347 58.3885C367.779 57.0968 367.494 55.5727 367.494 53.816C367.494 52.111 367.779 50.6127 368.347 49.321C368.926 48.0293 369.768 47.0218 370.873 46.2985C371.979 45.5648 373.322 45.198 374.903 45.198ZM374.903 47.895C373.653 47.895 372.713 48.3755 372.082 49.3365C371.452 50.2872 371.137 51.7803 371.137 53.816C371.137 55.8413 371.447 57.3345 372.067 58.2955C372.697 59.2565 373.638 59.737 374.888 59.737C376.138 59.737 377.073 59.2565 377.693 58.2955C378.324 57.3345 378.639 55.831 378.639 53.785C378.639 51.77 378.329 50.2872 377.709 49.3365C377.089 48.3755 376.154 47.895 374.903 47.895ZM387.09 62V59.52H389.492V48.0965H387.09V45.632H392.143L392.778 49.4295C393.388 48.0552 394.142 47.0115 395.041 46.2985C395.951 45.5752 397.118 45.2135 398.544 45.2135C399.03 45.2135 399.464 45.2548 399.846 45.3375C400.239 45.4098 400.626 45.508 401.009 45.632L399.97 48.608C399.64 48.515 399.33 48.4478 399.04 48.4065C398.751 48.3548 398.431 48.329 398.079 48.329C396.891 48.329 395.863 48.7733 394.995 49.662C394.137 50.5507 393.46 51.8113 392.964 53.444V59.52H396.266V62H387.09ZM397.94 51.6615V47.6315L398.374 45.632H401.009L400.42 51.6615H397.94ZM434.961 51.1965C434.961 49.4915 434.79 48.1223 434.449 47.089C434.118 46.0557 433.669 45.2703 433.101 44.733C432.543 44.1957 431.917 43.834 431.225 43.648C430.543 43.462 429.846 43.369 429.133 43.369H427.164V59.272H429.148C429.892 59.272 430.61 59.1532 431.303 58.9155C431.995 58.6778 432.615 58.2645 433.163 57.6755C433.721 57.0865 434.16 56.2702 434.48 55.2265C434.8 54.1725 434.961 52.8292 434.961 51.1965ZM438.743 51.1965C438.743 52.9635 438.551 54.4722 438.169 55.7225C437.797 56.9728 437.28 58.0113 436.619 58.838C435.968 59.6543 435.214 60.295 434.356 60.76C433.509 61.2147 432.61 61.535 431.659 61.721C430.708 61.907 429.758 62 428.807 62H423.568V40.61H428.451C429.753 40.61 431.013 40.7495 432.233 41.0285C433.462 41.3075 434.563 41.8242 435.534 42.5785C436.516 43.3328 437.296 44.4023 437.875 45.787C438.453 47.1717 438.743 48.9748 438.743 51.1965ZM445.581 54.932C445.654 56.048 445.891 56.9625 446.294 57.6755C446.697 58.3782 447.224 58.8948 447.875 59.2255C448.537 59.5562 449.26 59.7215 450.045 59.7215C450.851 59.7215 451.595 59.5975 452.277 59.3495C452.959 59.1015 453.647 58.7502 454.339 58.2955L455.842 60.3725C455.078 60.9925 454.184 61.4885 453.161 61.8605C452.138 62.2325 451.043 62.4185 449.875 62.4185C448.18 62.4185 446.744 62.0568 445.566 61.3335C444.398 60.6102 443.51 59.6027 442.9 58.311C442.29 57.0193 441.985 55.5262 441.985 53.8315C441.985 52.1885 442.285 50.7212 442.884 49.4295C443.484 48.1275 444.341 47.0993 445.457 46.345C446.573 45.5803 447.906 45.198 449.456 45.198C450.913 45.198 452.164 45.5287 453.207 46.19C454.261 46.8513 455.073 47.7917 455.641 49.011C456.22 50.22 456.509 51.677 456.509 53.382C456.509 53.661 456.499 53.94 456.478 54.219C456.468 54.4877 456.452 54.7253 456.431 54.932H445.581ZM449.487 47.771C448.402 47.771 447.503 48.1585 446.79 48.9335C446.088 49.7085 445.68 50.9175 445.566 52.5605H453.145C453.114 51.0208 452.784 49.8377 452.153 49.011C451.533 48.1843 450.645 47.771 449.487 47.771ZM475.624 45.632L469.858 62H465.797L460.031 45.632H463.751L467.905 59.117L472.074 45.632H475.624ZM485.826 59.7525C486.911 59.7525 487.774 59.5613 488.415 59.179C489.055 58.7863 489.376 58.249 489.376 57.567C489.376 57.1227 489.283 56.7455 489.097 56.4355C488.911 56.1152 488.539 55.8258 487.981 55.5675C487.423 55.2988 486.575 55.0198 485.439 54.7305C484.364 54.4515 483.419 54.1208 482.602 53.7385C481.796 53.3562 481.171 52.8602 480.727 52.2505C480.282 51.6408 480.06 50.8555 480.06 49.8945C480.06 48.9542 480.324 48.1327 480.851 47.43C481.378 46.7273 482.132 46.1797 483.114 45.787C484.106 45.3943 485.268 45.198 486.601 45.198C487.976 45.198 489.174 45.3788 490.197 45.7405C491.22 46.1022 492.093 46.5517 492.817 47.089L491.36 49.2745C490.719 48.8508 490.016 48.5047 489.252 48.236C488.497 47.9673 487.645 47.833 486.694 47.833C485.589 47.833 484.793 47.9983 484.307 48.329C483.832 48.6597 483.594 49.0988 483.594 49.6465C483.594 50.0495 483.713 50.3905 483.951 50.6695C484.199 50.9382 484.622 51.1913 485.222 51.429C485.821 51.6563 486.668 51.925 487.764 52.235C488.828 52.5243 489.753 52.8653 490.538 53.258C491.334 53.6507 491.949 54.1725 492.383 54.8235C492.827 55.4642 493.049 56.3012 493.049 57.3345C493.049 58.5125 492.708 59.4787 492.026 60.233C491.355 60.977 490.466 61.5298 489.36 61.8915C488.265 62.2428 487.087 62.4185 485.826 62.4185C484.307 62.4185 482.995 62.2015 481.889 61.7675C480.784 61.3232 479.854 60.7703 479.099 60.109L480.944 58.001C481.584 58.5177 482.318 58.9413 483.145 59.272C483.971 59.5923 484.865 59.7525 485.826 59.7525Z" fill="#3F3F46"/>
</svg>
